<?xml version="1.0" encoding="utf-8"?>
<!-- Generator: Adobe Illustrator 16.0.0, SVG Export Plug-In . SVG Version: 6.00 Build 0)  -->
<!DOCTYPE svg PUBLIC "-//W3C//DTD SVG 1.1//EN" "http://www.w3.org/Graphics/SVG/1.1/DTD/svg11.dtd">
<svg version="1.1" id="Layer_1" xmlns="http://www.w3.org/2000/svg" xmlns:xlink="http://www.w3.org/1999/xlink" x="0px" y="0px"
	 width="455.336px" height="353.982px" viewBox="0 0 455.336 353.982" enable-background="new 0 0 455.336 353.982"
	 xml:space="preserve">
<g id="Layer_1_1_">
	<g>
		<g>
			<g>
				<rect x="200.506" y="284.833" fill="#6DCFF6" width="9.608" height="20.994"/>
			</g>
			<g>
				<rect x="185.714" y="284.833" fill="#6DCFF6" width="9.612" height="14.365"/>
			</g>
			<g>
				<rect x="170.922" y="284.833" fill="#6DCFF6" width="9.617" height="32.592"/>
			</g>
		</g>
		<g>
			<polygon fill="#6DCFF6" points="175.545,79.319 168.946,45.934 166.215,55.761 150.377,55.761 150.377,53.553 164.537,53.553 
				169.31,36.383 175.459,67.496 184.253,19.321 189.206,53.553 202.925,53.553 206.185,46.563 209.913,53.553 219.378,53.553 
				219.378,55.761 208.589,55.761 206.317,51.503 204.331,55.761 187.294,55.761 184.001,32.998 			"/>
		</g>
		<g>
			<g>
				<path fill="#6DCFF6" d="M292.526,131.291l-12.882-12.882l13.767-13.761c1.719-1.72,4.006-2.668,6.438-2.668
					s4.721,0.948,6.438,2.669c1.721,1.717,2.67,4.004,2.67,6.438s-0.949,4.721-2.672,6.439L292.526,131.291z M282.768,118.409
					l9.759,9.759l12.199-12.204c1.308-1.303,2.024-3.035,2.024-4.877c0-1.843-0.719-3.575-2.022-4.876
					c-1.304-1.305-3.034-2.022-4.878-2.022s-3.575,0.718-4.877,2.021L282.768,118.409z"/>
			</g>
			<g>
				<path fill="#6DCFF6" d="M273.881,146.159c-2.432,0-4.719-0.948-6.439-2.668c-3.549-3.548-3.549-9.325-0.001-12.877
					l13.767-13.767l12.881,12.882l-13.766,13.761C278.602,145.211,276.314,146.159,273.881,146.159z M281.206,119.97l-12.203,12.205
					c-2.688,2.691-2.688,7.067,0,9.754c1.304,1.304,3.037,2.022,4.879,2.022c1.844,0,3.576-0.718,4.881-2.022l12.203-12.2
					L281.206,119.97z"/>
			</g>
		</g>
		<g>
			<g>
				<path fill="#6DCFF6" d="M305.274,151.076c-6.088,0-11.041-4.953-11.041-11.04s4.953-11.04,11.041-11.04
					c6.087,0,11.04,4.952,11.04,11.04S311.361,151.076,305.274,151.076z M305.274,131.205c-4.87,0-8.832,3.962-8.832,8.832
					s3.962,8.832,8.832,8.832s8.831-3.962,8.831-8.832S310.145,131.205,305.274,131.205z"/>
			</g>
			<g>
				<rect x="301.461" y="130.101" fill="#6DCFF6" width="2.209" height="19.872"/>
			</g>
			<g>
				<rect x="306.879" y="130.101" fill="#6DCFF6" width="2.209" height="19.872"/>
			</g>
		</g>
		<g>
			<g>
				<path fill="#6DCFF6" d="M333.268,130.139c-2.948,0-5.721-1.149-7.807-3.234c-2.086-2.083-3.234-4.855-3.234-7.804
					c0-2.949,1.148-5.722,3.234-7.807c2.086-2.086,4.857-3.235,7.807-3.235c2.947,0,5.721,1.149,7.805,3.235
					c2.086,2.085,3.234,4.858,3.234,7.807c0,2.949-1.148,5.721-3.234,7.805S336.215,130.139,333.268,130.139z M333.268,110.267
					c-2.357,0-4.576,0.919-6.245,2.588c-1.669,1.668-2.588,3.887-2.588,6.246s0.919,4.576,2.588,6.242
					c1.669,1.669,3.888,2.588,6.245,2.588s4.574-0.919,6.244-2.588c1.668-1.667,2.587-3.884,2.587-6.243s-0.919-4.577-2.587-6.246
					C337.842,111.186,335.625,110.267,333.268,110.267z"/>
			</g>
			<g>
				
					<rect x="321.404" y="119.912" transform="matrix(-0.7071 -0.7071 0.7071 -0.7071 480.0718 440.8737)" fill="#6DCFF6" width="19.87" height="2.208"/>
			</g>
			<g>
				
					<rect x="325.251" y="116.075" transform="matrix(-0.7071 -0.7071 0.7071 -0.7071 489.3236 437.0574)" fill="#6DCFF6" width="19.869" height="2.208"/>
			</g>
		</g>
		<g>
			<g>
				<path fill="#6DCFF6" d="M223.664,79.989l-4.829-4.831l4.091-10.548l0.165-0.165l33.906-33.909
					c1.512-1.507,3.518-2.336,5.649-2.336s4.136,0.83,5.642,2.337c1.508,1.506,2.338,3.511,2.338,5.645
					c0,2.134-0.83,4.139-2.34,5.646l-34.068,34.069L223.664,79.989z M221.413,74.615l2.794,2.794l8.777-3.403l33.741-33.741
					c1.092-1.09,1.691-2.541,1.691-4.084s-0.601-2.993-1.691-4.083c-1.089-1.09-2.537-1.69-4.079-1.69
					c-1.544,0-2.997,0.601-4.091,1.691l-33.739,33.744L221.413,74.615z"/>
			</g>
			<g>
				<path fill="#6DCFF6" d="M220.412,75.176l-5.792,5.792c-0.9,0.897-0.896,2.347,0,3.239c0.894,0.893,2.342,0.897,3.239,0
					l5.796-5.792L220.412,75.176z"/>
			</g>
			<g>
				
					<rect x="259.305" y="39.338" transform="matrix(-0.7067 -0.7075 0.7075 -0.7067 419.4073 254.7407)" fill="#6DCFF6" width="6.395" height="2.208"/>
			</g>
			<g>
				
					<rect x="255.207" y="43.434" transform="matrix(-0.7067 -0.7075 0.7075 -0.7067 409.5153 258.8335)" fill="#6DCFF6" width="6.395" height="2.208"/>
			</g>
			<g>
				
					<rect x="251.099" y="47.519" transform="matrix(-0.7076 -0.7066 0.7066 -0.7076 399.8621 262.7235)" fill="#6DCFF6" width="6.389" height="2.208"/>
			</g>
			<g>
				
					<rect x="247" y="51.616" transform="matrix(-0.7067 -0.7075 0.7075 -0.7067 389.7076 266.9977)" fill="#6DCFF6" width="6.394" height="2.208"/>
			</g>
			<g>
				
					<rect x="242.898" y="55.715" transform="matrix(-0.7071 -0.7071 0.7071 -0.7071 379.9201 271.0168)" fill="#6DCFF6" width="6.391" height="2.207"/>
			</g>
			<g>
				
					<rect x="238.813" y="59.804" transform="matrix(-0.7071 -0.7071 0.7071 -0.7071 370.0671 275.1032)" fill="#6DCFF6" width="6.392" height="2.208"/>
			</g>
			<g>
				
					<rect x="234.721" y="63.896" transform="matrix(-0.7073 -0.707 0.707 -0.7073 360.2345 279.1694)" fill="#6DCFF6" width="6.393" height="2.209"/>
			</g>
			<g>
				
					<rect x="230.614" y="67.998" transform="matrix(-0.7075 -0.7068 0.7068 -0.7075 350.3779 283.2355)" fill="#6DCFF6" width="6.388" height="2.207"/>
			</g>
		</g>
		<g>
			<g>
				<path fill="#6DCFF6" d="M91.204,144.129c0-3.756-3.049-6.801-6.8-6.801c-3.761,0-6.806,3.045-6.806,6.801
					c0-3.756-3.045-6.801-6.801-6.801c-3.756,0-6.801,3.045-6.801,6.801c0,10.415,13.602,18.04,13.602,18.04
					S91.204,154.544,91.204,144.129z"/>
			</g>
			<g>
				<path fill="#6DCFF6" d="M95.707,139.402h-2.209c0-2.409-1.959-4.369-4.368-4.369v-2.208
					C92.756,132.826,95.707,135.776,95.707,139.402z"/>
			</g>
			<g>
				<path fill="#6DCFF6" d="M100.758,139.402h-2.209c0-5.194-4.225-9.419-9.419-9.419v-2.208
					C95.541,127.775,100.758,132.991,100.758,139.402z"/>
			</g>
		</g>
		<g>
			<g>
				<path fill="#6DCFF6" d="M390.483,167.817h-4.416v-2.208h4.416V167.817z M382.977,167.817h-4.416v-2.208h4.416V167.817z
					 M375.469,167.817h-4.416v-2.208h4.416V167.817z M367.961,167.817h-4.416v-2.208h4.416V167.817z"/>
			</g>
			<g>
				<path fill="#6DCFF6" d="M377.09,174.442h-4.416v-2.208h4.416V174.442z M369.583,174.442h-4.416v-2.208h4.416V174.442z
					 M362.075,174.442h-4.416v-2.208h4.416V174.442z"/>
			</g>
		</g>
		<g>
			<g>
				<path fill="#6DCFF6" d="M118.345,325.141h-4.416v-2.209h4.416V325.141z M110.838,325.141h-4.416v-2.209h4.416V325.141z
					 M103.33,325.141h-4.416v-2.209h4.416V325.141z M95.823,325.141h-4.416v-2.209h4.416V325.141z"/>
			</g>
			<g>
				<path fill="#6DCFF6" d="M104.951,331.764h-4.416v-2.209h4.416V331.764z M97.443,331.764h-4.416v-2.209h4.416V331.764z
					 M89.937,331.764h-4.416v-2.209h4.416V331.764z"/>
			</g>
		</g>
		<g>
			<g>
				<path fill="#6DCFF6" d="M403.59,236.817h-4.416v-2.207h4.416V236.817z M396.083,236.817h-4.416v-2.207h4.416V236.817z
					 M388.575,236.817h-4.416v-2.207h4.416V236.817z"/>
			</g>
			<g>
				<path fill="#6DCFF6" d="M392.452,243.442h-4.416v-2.209h4.416V243.442z M384.944,243.442h-4.416v-2.209h4.416V243.442z"/>
			</g>
		</g>
		<g>
			<g>
				<path fill="#6DCFF6" d="M80.237,177.573h-4.416v-2.208h4.416V177.573z M72.73,177.573h-4.416v-2.208h4.416V177.573z
					 M65.223,177.573h-4.416v-2.208h4.416V177.573z"/>
			</g>
			<g>
				<path fill="#6DCFF6" d="M83.869,184.196h-4.416v-2.208h4.416V184.196z M76.362,184.196h-4.416v-2.208h4.416V184.196z"/>
			</g>
		</g>
		<g>
			<path fill="#6DCFF6" d="M161.316,87.249H156.9v-2.208h4.416V87.249z M153.81,87.249h-4.416v-2.208h4.416V87.249z"/>
		</g>
		<g>
			<path fill="#6DCFF6" d="M231.806,287.051h-4.416v-2.209h4.416V287.051z M224.299,287.051h-4.416v-2.209h4.416V287.051z"/>
		</g>
		<g>
			<path fill="#6DCFF6" d="M268.168,77.47h-4.416v-2.208h4.416V77.47z M260.661,77.47h-4.416v-2.208h4.416V77.47z M253.153,77.47
				h-4.416v-2.208h4.416V77.47z"/>
		</g>
		<g>
			<path fill="#6DCFF6" d="M241.12,321.094h-4.416v-2.209h4.416V321.094z M233.611,321.094h-4.416v-2.209h4.416V321.094z
				 M226.104,321.094h-4.416v-2.209h4.416V321.094z"/>
		</g>
		<g>
			<g>
				<path fill="#6DCFF6" d="M288.653,331.932H259.7l-14.479-25.079l14.479-25.08h28.953l14.479,25.08L288.653,331.932z
					 M260.976,329.723h26.401l13.207-22.87l-13.207-22.871h-26.401l-13.207,22.871L260.976,329.723z"/>
			</g>
			<g>
				<path fill="#6DCFF6" d="M305.688,306.853c0,2.113-1.712,3.83-3.83,3.83c-2.113,0-3.829-1.717-3.829-3.83
					c0-2.117,1.716-3.834,3.829-3.834C303.977,303.019,305.688,304.735,305.688,306.853z"/>
			</g>
			<g>
				<path fill="#6DCFF6" d="M291.851,282.876c0,2.113-1.713,3.834-3.835,3.834c-2.113,0-3.83-1.721-3.83-3.834
					c0-2.117,1.717-3.834,3.83-3.834C290.138,279.042,291.851,280.759,291.851,282.876z"/>
			</g>
			<g>
				<path fill="#6DCFF6" d="M264.167,282.876c0,2.113-1.715,3.834-3.828,3.834s-3.83-1.721-3.83-3.834
					c0-2.117,1.717-3.834,3.83-3.834S264.167,280.759,264.167,282.876z"/>
			</g>
			<g>
				<circle fill="#6DCFF6" cx="246.495" cy="306.853" r="3.83"/>
			</g>
			<g>
				<path fill="#6DCFF6" d="M264.167,330.827c0,2.117-1.715,3.834-3.828,3.834s-3.83-1.717-3.83-3.834
					c0-2.113,1.717-3.834,3.83-3.834S264.167,328.714,264.167,330.827z"/>
			</g>
			<g>
				<path fill="#6DCFF6" d="M291.851,330.827c0,2.117-1.713,3.834-3.835,3.834c-2.113,0-3.83-1.717-3.83-3.834
					c0-2.113,1.717-3.834,3.83-3.834C290.138,326.993,291.851,328.714,291.851,330.827z"/>
			</g>
			<g>
				
					<rect x="281.102" y="245.798" transform="matrix(-0.5 -0.866 0.866 -0.5 228.6106 625.7863)" fill="#6DCFF6" width="27.685" height="2.208"/>
			</g>
			<g>
				
					<rect x="322.607" y="317.738" transform="matrix(-0.4999 -0.8661 0.8661 -0.4999 228.4838 769.6208)" fill="#6DCFF6" width="27.682" height="2.208"/>
			</g>
			<g>
				
					<rect x="335.345" y="233.081" transform="matrix(-0.8661 -0.4999 0.4999 -0.8661 504.4263 628.9605)" fill="#6DCFF6" width="2.208" height="27.685"/>
			</g>
			<g>
				<path fill="#6DCFF6" d="M330.183,307.957h-28.962l-14.479-25.081l14.479-25.083h28.962l14.476,25.083L330.183,307.957z
					 M302.497,305.748h26.41l13.202-22.872l-13.202-22.874h-26.41l-13.207,22.874L302.497,305.748z"/>
			</g>
			<g>
				<path fill="#6DCFF6" d="M347.217,282.876c0,2.113-1.715,3.834-3.834,3.834c-2.111,0-3.828-1.721-3.828-3.834
					c0-2.117,1.717-3.834,3.828-3.834C345.502,279.042,347.217,280.759,347.217,282.876z"/>
			</g>
			<g>
				<path fill="#6DCFF6" d="M333.375,258.897c0,2.112-1.717,3.834-3.83,3.834c-2.112,0-3.83-1.722-3.83-3.834
					c0-2.113,1.718-3.834,3.83-3.834C331.659,255.063,333.375,256.784,333.375,258.897z"/>
			</g>
			<g>
				<path fill="#6DCFF6" d="M305.688,258.897c0,2.112-1.712,3.834-3.83,3.834c-2.113,0-3.829-1.722-3.829-3.834
					c0-2.113,1.716-3.834,3.829-3.834C303.977,255.063,305.688,256.784,305.688,258.897z"/>
			</g>
			<g>
				<circle fill="#6DCFF6" cx="329.545" cy="306.853" r="3.83"/>
			</g>
			<g>
				<rect x="218.808" y="305.748" fill="#6DCFF6" width="27.687" height="2.209"/>
			</g>
		</g>
		<g>
			<path fill="#6DCFF6" d="M401.272,191.002c-2.232,0-4.051-1.817-4.051-4.05c0-2.233,1.816-4.049,4.051-4.049
				c2.232,0,4.049,1.815,4.049,4.049C405.321,189.185,403.504,191.002,401.272,191.002z M401.272,185.11
				c-1.018,0-1.842,0.826-1.842,1.842s0.824,1.842,1.842,1.842c1.016,0,1.84-0.826,1.84-1.842S402.288,185.11,401.272,185.11z"/>
		</g>
		<g>
			<path fill="#6DCFF6" d="M352.51,262.396c-2.232,0-4.051-1.816-4.051-4.049c0-2.234,1.817-4.051,4.051-4.051
				c2.232,0,4.05,1.816,4.05,4.051C356.56,260.579,354.743,262.396,352.51,262.396z M352.51,256.506
				c-1.016,0-1.842,0.825-1.842,1.841s0.826,1.842,1.842,1.842s1.841-0.826,1.841-1.842S353.525,256.506,352.51,256.506z"/>
		</g>
		<g>
			<path fill="#6DCFF6" d="M200.895,326.428c-2.232,0-4.05-1.816-4.05-4.05s1.817-4.05,4.05-4.05s4.05,1.816,4.05,4.05
				S203.127,326.428,200.895,326.428z M200.895,320.537c-1.016,0-1.841,0.825-1.841,1.841s0.825,1.841,1.841,1.841
				s1.841-0.825,1.841-1.841S201.91,320.537,200.895,320.537z"/>
		</g>
		<g>
			<path fill="#6DCFF6" d="M88.651,206.091c-2.232,0-4.05-1.816-4.05-4.05s1.817-4.049,4.05-4.049s4.05,1.815,4.05,4.049
				S90.884,206.091,88.651,206.091z M88.651,200.2c-1.016,0-1.841,0.826-1.841,1.841c0,1.017,0.825,1.842,1.841,1.842
				s1.841-0.825,1.841-1.842C90.492,201.026,89.667,200.2,88.651,200.2z"/>
		</g>
		<g>
			<path fill="#6DCFF6" d="M116.077,135.555c-2.233,0-4.051-1.816-4.051-4.049c0-2.235,1.817-4.054,4.051-4.054
				c2.232,0,4.05,1.818,4.05,4.054C120.127,133.738,118.31,135.555,116.077,135.555z M116.077,129.66
				c-1.016,0-1.842,0.828-1.842,1.846c0,1.015,0.826,1.841,1.842,1.841c1.016,0,1.841-0.826,1.841-1.841
				C117.918,130.488,117.093,129.66,116.077,129.66z"/>
		</g>
		<g>
			<path fill="#6DCFF6" d="M161.316,129.755c-2.232,0-4.05-1.816-4.05-4.049s1.817-4.05,4.05-4.05s4.05,1.817,4.05,4.05
				S163.549,129.755,161.316,129.755z M161.316,123.864c-1.016,0-1.841,0.826-1.841,1.842c0,1.015,0.825,1.841,1.841,1.841
				s1.841-0.826,1.841-1.841C163.157,124.69,162.332,123.864,161.316,123.864z"/>
		</g>
		<g>
			<path fill="#6DCFF6" d="M340.551,50.426c-2.232,0-4.051-1.816-4.051-4.049s1.817-4.05,4.051-4.05c2.232,0,4.051,1.817,4.051,4.05
				S342.784,50.426,340.551,50.426z M340.551,44.535c-1.016,0-1.842,0.826-1.842,1.842c0,1.015,0.826,1.841,1.842,1.841
				c1.017,0,1.842-0.826,1.842-1.841C342.393,45.361,341.567,44.535,340.551,44.535z"/>
		</g>
		<g>
			<path fill="#6DCFF6" d="M142.748,331.949c-2.232,0-4.05-1.817-4.05-4.05c0-2.233,1.817-4.051,4.05-4.051s4.05,1.817,4.05,4.051
				C146.798,330.132,144.98,331.949,142.748,331.949z M142.748,326.059c-1.016,0-1.841,0.825-1.841,1.842
				c0,1.016,0.825,1.841,1.841,1.841s1.841-0.825,1.841-1.841C144.589,326.884,143.764,326.059,142.748,326.059z"/>
		</g>
		<g>
			<path fill="#6DCFF6" d="M331.676,61.665c0,15.913-12.899,28.812-28.809,28.812c-15.914,0-28.816-12.899-28.816-28.812
				s12.902-28.812,28.816-28.812C318.776,32.853,331.676,45.751,331.676,61.665z"/>
		</g>
		<g>
			<path fill="#6DCFF6" d="M165.062,185.181c0,17.81-14.443,32.256-32.262,32.256c-17.812,0-32.258-14.446-32.258-32.256
				c0-17.821,14.446-32.264,32.258-32.264C150.618,152.917,165.062,167.36,165.062,185.181z"/>
		</g>
		<g>
			<polygon fill="#FFFFFF" points="392.702,82.063 350.366,82.063 350.366,155.333 404.77,155.333 404.77,94.129 			"/>
			<polygon fill="#ED931C" points="392.702,94.129 404.77,94.129 392.702,82.063 			"/>
			<polygon fill="#BDBDBD" points="404.772,94.129 392.706,94.129 404.772,106.2 			"/>
			
				<line fill="none" stroke="#3E3E3C" stroke-width="2.208" stroke-miterlimit="10" x1="358.482" y1="93.689" x2="375.81" y2="93.689"/>
			
				<line fill="none" stroke="#3E3E3C" stroke-width="2.208" stroke-miterlimit="10" x1="358.482" y1="147.216" x2="368.575" y2="147.216"/>
			
				<line fill="none" stroke="#3E3E3C" stroke-width="2.208" stroke-miterlimit="10" x1="358.482" y1="105.101" x2="396.649" y2="105.101"/>
			
				<line fill="none" stroke="#3E3E3C" stroke-width="2.208" stroke-miterlimit="10" x1="358.482" y1="110.181" x2="396.649" y2="110.181"/>
			
				<line fill="none" stroke="#3E3E3C" stroke-width="2.208" stroke-miterlimit="10" x1="358.482" y1="115.261" x2="396.649" y2="115.261"/>
			
				<line fill="none" stroke="#3E3E3C" stroke-width="2.208" stroke-miterlimit="10" x1="358.482" y1="120.341" x2="396.649" y2="120.341"/>
			<g>
				<g>
					<path fill="#3E3E3C" d="M385.767,89.062c0.752,0.256,1.315,0.701,1.829,1.265l-1.385,1.538
						c-0.309-0.325-0.598-0.564-0.924-0.735l-0.957,4.854c0.735-0.085,1.334-0.479,1.914-1.025l1.352,1.367
						c-0.872,0.974-2.051,1.675-3.571,1.709l-0.31,1.555h-1.776l0.358-1.812c-1.76-0.581-3.041-2.153-3.041-4.255v-0.034
						c0-2.666,1.966-4.683,4.699-4.683h0.086l0.272-1.384h1.776L385.767,89.062z M382.758,95.744l0.976-4.888
						c-1.229,0.103-2.17,1.077-2.17,2.666v0.034C381.563,94.616,382.024,95.368,382.758,95.744z"/>
				</g>
			</g>
			<g>
				<path fill="#3E3E3C" d="M394.674,139.95c-0.684-0.461-1.418-0.82-2.119-1.008v2.598c2.598,0.701,3.709,1.743,3.709,3.657v0.034
					c0,1.914-1.471,3.145-3.623,3.367v1.692h-1.777v-1.726c-1.47-0.188-2.904-0.769-4.033-1.624l1.334-1.948
					c0.922,0.701,1.776,1.179,2.785,1.384v-2.717c-2.461-0.667-3.675-1.589-3.675-3.623v-0.034c0-1.88,1.437-3.127,3.589-3.35
					v-0.991h1.777v1.042c1.213,0.154,2.238,0.598,3.18,1.248L394.674,139.95z M390.95,141.112v-2.324
					c-0.839,0.103-1.181,0.513-1.181,1.06v0.034C389.77,140.428,390.008,140.77,390.95,141.112z M392.555,144.068v2.393
					c0.804-0.12,1.214-0.479,1.214-1.094v-0.034C393.769,144.769,393.479,144.41,392.555,144.068z"/>
			</g>
			
				<line fill="none" stroke="#3E3E3C" stroke-width="2.208" stroke-miterlimit="10" x1="358.482" y1="125.425" x2="396.649" y2="125.425"/>
			
				<line fill="none" stroke="#3E3E3C" stroke-width="2.208" stroke-miterlimit="10" x1="358.482" y1="130.51" x2="396.649" y2="130.51"/>
			
				<line fill="none" stroke="#3E3E3C" stroke-width="2.208" stroke-miterlimit="10" x1="358.482" y1="135.59" x2="384.366" y2="135.59"/>
		</g>
		<g>
			<path fill="#ED931C" d="M293.993,43.311c-2.89,0-5.229,2.341-5.228,5.231l-0.003,12.002h10.466V48.542
				C299.229,45.648,296.881,43.311,293.993,43.311z"/>
			<path fill="#FFFFFF" d="M293.993,77.781c2.889,0.004,5.235-2.342,5.235-5.231V60.543h-10.466l0.003,12.006
				C288.763,75.439,291.104,77.785,293.993,77.781z"/>
			<path fill="#BDBDBD" d="M293.993,77.781c2.889,0.004,5.235-2.342,5.235-5.231V48.542c0-2.894-2.347-5.231-5.235-5.231V77.781z"/>
		</g>
		<g>
			<path fill="#FFFFFF" d="M306.922,64.062c-2.049,2.044-2.049,5.36,0,7.4l8.481,8.487l7.399-7.4l-8.49-8.487
				C312.273,62.014,308.961,62.018,306.922,64.062z"/>
			<path fill="#44BECB" d="M331.292,88.437c2.045-2.044,2.045-5.356,0-7.4l-8.486-8.487l-7.4,7.4l8.487,8.487
				C325.932,90.481,329.252,90.481,331.292,88.437z"/>
			<path fill="#BDBDBD" d="M331.292,88.437c2.045-2.044,2.045-5.356,0-7.4l-16.979-16.974c-2.04-2.048-5.352-2.044-7.391,0
				L331.292,88.437z"/>
		</g>
		<g>
			<path fill="#FFFFFF" d="M318.144,49.685c0,3.527-2.854,6.382-6.384,6.382c-3.52,0-6.373-2.855-6.373-6.382
				c0-3.52,2.854-6.374,6.373-6.374C315.288,43.311,318.144,46.165,318.144,49.685z"/>
			<path fill="#BDBDBD" d="M311.76,43.311c3.527,0,6.384,2.854,6.384,6.374c0,3.527-2.854,6.382-6.384,6.382V43.311z"/>
		</g>
		<g>
			<path fill="#3E3E3C" d="M275.768,268.687c0,1.777-0.678,3.556-2.034,4.908c-1.354,1.359-3.131,2.037-4.907,2.037H181.54
				c-1.776,0-3.554-0.678-4.907-2.037c-1.358-1.354-2.035-3.131-2.035-4.908V103.38c0-1.781,0.677-3.554,2.035-4.912
				c1.354-1.354,3.131-2.031,4.907-2.031h87.287c1.776,0,3.553,0.677,4.907,2.031c1.356,1.358,2.034,3.131,2.034,4.912V268.687z"/>
			<rect x="179.612" y="111.862" fill="#FFFFFF" width="91.141" height="148.338"/>
			<rect x="214.768" y="102.026" fill="#FFFFFF" width="20.833" height="4.631"/>
			<rect x="214.768" y="265.216" fill="#FFFFFF" width="20.833" height="4.627"/>
			
				<line fill="none" stroke="#3E3E3C" stroke-width="3.8956" stroke-miterlimit="10" x1="192.107" y1="140.641" x2="222.678" y2="140.641"/>
			
				<line fill="none" stroke="#3E3E3C" stroke-width="3.8956" stroke-miterlimit="10" x1="192.107" y1="235.08" x2="209.912" y2="235.08"/>
			
				<line fill="none" stroke="#3E3E3C" stroke-width="3.8956" stroke-miterlimit="10" x1="192.107" y1="160.774" x2="259.443" y2="160.774"/>
			
				<line fill="none" stroke="#3E3E3C" stroke-width="3.8956" stroke-miterlimit="10" x1="192.107" y1="169.737" x2="259.443" y2="169.737"/>
			
				<line fill="none" stroke="#3E3E3C" stroke-width="3.8956" stroke-miterlimit="10" x1="192.107" y1="178.7" x2="259.443" y2="178.7"/>
			
				<line fill="none" stroke="#3E3E3C" stroke-width="3.8956" stroke-miterlimit="10" x1="192.107" y1="187.664" x2="259.443" y2="187.664"/>
			<g>
				<g>
					<path fill="#3E3E3C" d="M240.245,132.476c1.326,0.452,2.322,1.236,3.229,2.231l-2.441,2.713
						c-0.545-0.573-1.057-0.995-1.631-1.296l-1.688,8.563c1.297-0.15,2.354-0.844,3.377-1.809l2.384,2.412
						c-1.539,1.719-3.619,2.955-6.302,3.015l-0.545,2.744h-3.137l0.635-3.196c-3.104-1.025-5.367-3.799-5.367-7.508v-0.06
						c0-4.704,3.47-8.262,8.293-8.262h0.15l0.481-2.442h3.136L240.245,132.476z M234.938,144.266l1.721-8.624
						c-2.172,0.181-3.828,1.899-3.828,4.704v0.061C232.829,142.275,233.643,143.602,234.938,144.266z"/>
				</g>
			</g>
			<g>
				<path fill="#3E3E3C" d="M255.959,222.259c-1.205-0.814-2.502-1.447-3.738-1.779v4.584c4.584,1.235,6.545,3.076,6.545,6.453
					v0.061c0,3.377-2.594,5.548-6.393,5.939v2.985h-3.138v-3.045c-2.592-0.332-5.125-1.356-7.114-2.864l2.352-3.438
					c1.629,1.236,3.137,2.08,4.916,2.441v-4.794c-4.342-1.176-6.482-2.804-6.482-6.392v-0.061c0-3.316,2.531-5.518,6.33-5.91v-1.748
					h3.137v1.839c2.141,0.271,3.949,1.055,5.607,2.2L255.959,222.259z M249.389,224.31v-4.101c-1.479,0.181-2.082,0.903-2.082,1.869
					v0.062C247.307,223.104,247.729,223.707,249.389,224.31z M252.221,229.526v4.221c1.418-0.211,2.143-0.844,2.143-1.93v-0.062
					C254.363,230.763,253.852,230.129,252.221,229.526z"/>
			</g>
			
				<line fill="none" stroke="#3E3E3C" stroke-width="3.8956" stroke-miterlimit="10" x1="192.107" y1="196.633" x2="259.443" y2="196.633"/>
			
				<line fill="none" stroke="#3E3E3C" stroke-width="3.8956" stroke-miterlimit="10" x1="192.107" y1="205.604" x2="259.443" y2="205.604"/>
			
				<line fill="none" stroke="#3E3E3C" stroke-width="3.8956" stroke-miterlimit="10" x1="192.107" y1="214.567" x2="237.773" y2="214.567"/>
		</g>
		<g>
			<path fill="none" stroke="#3E3E3C" stroke-width="3.312" stroke-miterlimit="10" d="M300.643,163.923h-9.4
				c-0.894,0-1.77,0.366-2.39,1.083c-0.621,0.72-0.854,1.643-0.726,2.527l6.595,54.44c0.385,2.691,1.729,5.301,3.972,7.254
				c2.247,1.955,5.003,2.916,7.715,2.916h3.619"/>
			<path fill="#44BECB" d="M302.722,161.733H298.2v4.386h4.522c1.216,0,2.198-0.983,2.198-2.195S303.938,161.733,302.722,161.733z"
				/>
			<path fill="none" stroke="#3E3E3C" stroke-width="3.312" stroke-miterlimit="10" d="M331.784,163.923h9.4
				c0.895,0,1.77,0.366,2.391,1.083c0.615,0.72,0.85,1.643,0.729,2.527l-6.6,54.44c-0.389,2.691-1.726,5.301-3.977,7.254
				c-2.242,1.955-4.998,2.916-7.711,2.916h-3.618"/>
			<path fill="#44BECB" d="M329.702,161.733h4.526v4.386h-4.526c-1.209,0-2.191-0.983-2.191-2.195S328.493,161.733,329.702,161.733z
				"/>
			<path fill="#44BECB" d="M326.639,228.883h-21.176v6.244h4.209c0.834,0,1.666,0.319,2.305,0.958
				c0.639,0.634,0.952,1.466,0.952,2.303v2.377h6.243v-2.377c0-0.837,0.316-1.669,0.955-2.303c0.638-0.639,1.47-0.958,2.303-0.958
				h4.209V228.883z"/>
			<path fill="none" stroke="#3E3E3C" stroke-width="3.312" stroke-miterlimit="10" d="M315.939,240.694v47.654
				c0,4.17,1.593,8.336,4.774,11.52c3.182,3.178,7.349,4.77,11.514,4.77h21.434c4.166,0,8.336-1.592,11.516-4.77
				c3.183-3.184,4.773-7.35,4.773-11.52v-86.752"/>
			<path fill="#44BECB" d="M379.588,201.599c0,5.325-4.312,9.637-9.639,9.637s-9.64-4.312-9.64-9.637
				c0-5.326,4.313-9.644,9.64-9.644C375.275,191.955,379.588,196.271,379.588,201.599z"/>
			<path fill="#FFFFFF" d="M377.815,201.599c0,4.342-3.523,7.865-7.865,7.865c-4.348,0-7.871-3.523-7.871-7.865
				c0-4.348,3.523-7.867,7.871-7.867C374.292,193.731,377.815,197.25,377.815,201.599z"/>
			<path fill="#3E3E3C" d="M373.499,201.599c0,1.961-1.586,3.545-3.549,3.545s-3.55-1.584-3.55-3.545c0-1.959,1.587-3.55,3.55-3.55
				C371.913,198.048,373.499,199.64,373.499,201.599z"/>
		</g>
		<g>
			<path fill="#3E3E3C" d="M161.149,307.845c0,1.695-0.646,3.392-1.941,4.681c-1.293,1.299-2.988,1.944-4.683,1.944H56.64
				c-1.694,0-3.389-0.646-4.683-1.944c-1.295-1.289-1.941-2.984-1.941-4.681V240.13c0-1.695,0.646-3.389,1.941-4.683
				c1.294-1.294,2.988-1.941,4.683-1.941h97.886c1.694,0,3.39,0.647,4.683,1.941c1.295,1.294,1.941,2.987,1.941,4.683
				L161.149,307.845L161.149,307.845z"/>
			<rect x="55.536" y="238.659" fill="#FFFFFF" width="96.953" height="69.466"/>
			<path fill="#FFFFFF" d="M159.067,275.634c0,1.361-1.103,2.467-2.469,2.467c-1.362,0-2.465-1.104-2.465-2.467
				c0-1.365,1.103-2.471,2.465-2.471C157.965,273.163,159.067,274.269,159.067,275.634z"/>
			<g>
				<polygon fill="#FFFFFF" points="83.251,308.125 62.883,308.125 84.628,238.707 104.997,238.707 				"/>
				<polygon fill="#FFFFFF" points="97.763,308.125 89.732,308.125 111.47,238.707 119.508,238.707 				"/>
			</g>
			
				<line fill="none" stroke="#3E3E3C" stroke-width="2.208" stroke-miterlimit="10" x1="64.629" y1="247.998" x2="123.557" y2="247.998"/>
			
				<line fill="none" stroke="#3E3E3C" stroke-width="2.208" stroke-miterlimit="10" x1="64.629" y1="301.524" x2="116.321" y2="301.524"/>
			
				<line fill="none" stroke="#3E3E3C" stroke-width="2.208" stroke-miterlimit="10" x1="64.629" y1="259.408" x2="144.396" y2="259.408"/>
			
				<line fill="none" stroke="#3E3E3C" stroke-width="2.208" stroke-miterlimit="10" x1="64.629" y1="264.487" x2="144.396" y2="264.487"/>
			
				<line fill="none" stroke="#3E3E3C" stroke-width="2.208" stroke-miterlimit="10" x1="64.629" y1="269.567" x2="144.396" y2="269.567"/>
			
				<line fill="none" stroke="#3E3E3C" stroke-width="2.208" stroke-miterlimit="10" x1="64.629" y1="274.649" x2="144.396" y2="274.649"/>
			<g>
				<g>
					<path fill="#3E3E3C" d="M133.514,243.369c0.752,0.257,1.316,0.7,1.829,1.266l-1.384,1.537
						c-0.309-0.323-0.599-0.563-0.924-0.733l-0.957,4.854c0.735-0.086,1.334-0.479,1.914-1.025l1.351,1.367
						c-0.872,0.975-2.051,1.676-3.571,1.709l-0.309,1.555h-1.777l0.359-1.811c-1.76-0.582-3.042-2.154-3.042-4.256v-0.034
						c0-2.666,1.966-4.683,4.7-4.683h0.085l0.273-1.385h1.777L133.514,243.369z M130.506,250.052l0.975-4.888
						c-1.23,0.103-2.17,1.076-2.17,2.666v0.034C129.311,248.924,129.771,249.676,130.506,250.052z"/>
				</g>
			</g>
			<g>
				<path fill="#3E3E3C" d="M142.421,294.258c-0.684-0.461-1.418-0.819-2.119-1.008v2.599c2.598,0.699,3.709,1.741,3.709,3.655
					v0.035c0,1.914-1.47,3.146-3.623,3.366v1.691h-1.777v-1.727c-1.47-0.188-2.905-0.77-4.033-1.623l1.333-1.949
					c0.923,0.701,1.777,1.18,2.786,1.385v-2.717c-2.461-0.667-3.675-1.59-3.675-3.623v-0.035c0-1.879,1.436-3.127,3.589-3.35v-0.99
					h1.777v1.042c1.213,0.153,2.238,0.599,3.179,1.247L142.421,294.258z M138.696,295.42v-2.323c-0.838,0.103-1.18,0.512-1.18,1.06
					v0.034C137.517,294.735,137.756,295.078,138.696,295.42z M140.302,298.377v2.394c0.804-0.121,1.214-0.479,1.214-1.095v-0.034
					C141.516,299.077,141.226,298.719,140.302,298.377z"/>
			</g>
			
				<line fill="none" stroke="#3E3E3C" stroke-width="2.208" stroke-miterlimit="10" x1="64.629" y1="279.733" x2="144.396" y2="279.733"/>
			
				<line fill="none" stroke="#3E3E3C" stroke-width="2.208" stroke-miterlimit="10" x1="64.629" y1="284.817" x2="144.396" y2="284.817"/>
			
				<line fill="none" stroke="#3E3E3C" stroke-width="2.208" stroke-miterlimit="10" x1="64.629" y1="289.897" x2="132.113" y2="289.897"/>
		</g>
		<g>
			<path fill="#FFFFFF" d="M130.919,147.562h-16.241v2.351h1.535v48.559c0,3.641,2.95,6.594,6.589,6.594
				c3.637,0,6.586-2.953,6.586-6.594v-48.559h1.531V147.562z"/>
			<path fill="#ED931C" d="M117.934,162.233v36.321c0,2.687,2.179,4.859,4.868,4.859c2.684,0,4.865-2.173,4.865-4.859v-36.321
				H117.934z"/>
			<path fill="#BDBDBD" d="M122.802,205.065c3.637,0,6.586-2.955,6.586-6.594v-48.56h1.531v-2.351h-8.117V205.065z"/>
			<g>
				
					<line fill="none" stroke="#FFFFFF" stroke-width="2.208" stroke-miterlimit="10" x1="125.312" y1="154.854" x2="129.388" y2="154.854"/>
				
					<line fill="none" stroke="#FFFFFF" stroke-width="2.208" stroke-miterlimit="10" x1="125.312" y1="160.154" x2="129.388" y2="160.154"/>
				
					<line fill="none" stroke="#FFFFFF" stroke-width="2.208" stroke-miterlimit="10" x1="125.312" y1="165.45" x2="129.388" y2="165.45"/>
				
					<line fill="none" stroke="#FFFFFF" stroke-width="2.208" stroke-miterlimit="10" x1="125.312" y1="170.742" x2="129.388" y2="170.742"/>
				
					<line fill="none" stroke="#FFFFFF" stroke-width="2.208" stroke-miterlimit="10" x1="125.312" y1="176.037" x2="129.388" y2="176.037"/>
				
					<line fill="none" stroke="#FFFFFF" stroke-width="2.208" stroke-miterlimit="10" x1="125.312" y1="181.333" x2="129.388" y2="181.333"/>
				
					<line fill="none" stroke="#FFFFFF" stroke-width="2.208" stroke-miterlimit="10" x1="125.312" y1="186.629" x2="129.388" y2="186.629"/>
				
					<line fill="none" stroke="#FFFFFF" stroke-width="2.208" stroke-miterlimit="10" x1="125.312" y1="191.925" x2="129.388" y2="191.925"/>
				
					<line fill="none" stroke="#FFFFFF" stroke-width="2.208" stroke-miterlimit="10" x1="125.312" y1="197.216" x2="129.388" y2="197.216"/>
			</g>
		</g>
		<g>
			<path fill="#FFFFFF" d="M150.921,147.562h-16.237v2.351h1.531v48.559c0,3.641,2.949,6.594,6.59,6.594
				c3.639,0,6.589-2.953,6.589-6.594v-48.559h1.527V147.562z"/>
			<path fill="#44BECB" d="M137.939,162.233v36.321c0,2.687,2.179,4.859,4.865,4.859c2.682,0,4.864-2.173,4.864-4.859v-36.321
				H137.939z"/>
			<path fill="#BDBDBD" d="M142.805,205.065c3.639,0,6.589-2.955,6.589-6.594v-48.56h1.527v-2.351h-8.116V205.065z"/>
			<g>
				
					<line fill="none" stroke="#FFFFFF" stroke-width="2.208" stroke-miterlimit="10" x1="145.314" y1="154.854" x2="149.394" y2="154.854"/>
				
					<line fill="none" stroke="#FFFFFF" stroke-width="2.208" stroke-miterlimit="10" x1="145.314" y1="160.154" x2="149.394" y2="160.154"/>
				
					<line fill="none" stroke="#FFFFFF" stroke-width="2.208" stroke-miterlimit="10" x1="145.314" y1="165.45" x2="149.394" y2="165.45"/>
				
					<line fill="none" stroke="#FFFFFF" stroke-width="2.208" stroke-miterlimit="10" x1="145.314" y1="170.742" x2="149.394" y2="170.742"/>
				
					<line fill="none" stroke="#FFFFFF" stroke-width="2.208" stroke-miterlimit="10" x1="145.314" y1="176.037" x2="149.394" y2="176.037"/>
				
					<line fill="none" stroke="#FFFFFF" stroke-width="2.208" stroke-miterlimit="10" x1="145.314" y1="181.333" x2="149.394" y2="181.333"/>
				
					<line fill="none" stroke="#FFFFFF" stroke-width="2.208" stroke-miterlimit="10" x1="145.314" y1="186.629" x2="149.394" y2="186.629"/>
				
					<line fill="none" stroke="#FFFFFF" stroke-width="2.208" stroke-miterlimit="10" x1="145.314" y1="191.925" x2="149.394" y2="191.925"/>
				
					<line fill="none" stroke="#FFFFFF" stroke-width="2.208" stroke-miterlimit="10" x1="145.314" y1="197.216" x2="149.394" y2="197.216"/>
			</g>
		</g>
		<g>
			<path fill="#FFFFFF" d="M143.266,101.752c1.712,0.583,2.996,1.594,4.162,2.877l-3.149,3.5c-0.701-0.739-1.361-1.284-2.101-1.672
				L140,117.5c1.673-0.194,3.035-1.089,4.354-2.333l3.073,3.111c-1.983,2.216-4.666,3.811-8.125,3.889l-0.702,3.538h-4.044
				l0.817-4.122c-4.004-1.322-6.922-4.899-6.922-9.682v-0.078c0-6.066,4.474-10.654,10.694-10.654h0.193l0.622-3.149h4.044
				L143.266,101.752z M136.423,116.956l2.218-11.121c-2.8,0.234-4.938,2.45-4.938,6.066v0.078
				C133.703,114.39,134.752,116.101,136.423,116.956z"/>
		</g>
		<g>
			<path fill="#6DCFF6" d="M116.076,68.507c0-5.979-4.842-10.821-10.82-10.821s-10.821,4.842-10.821,10.821
				s4.843,10.821,10.821,10.821S116.076,74.486,116.076,68.507L116.076,68.507z M104.66,75.902c-0.299,0-0.447-0.168-0.447-0.466
				v-0.708c0-0.522-0.019-0.541-0.521-0.615c-0.634-0.094-1.249-0.243-1.845-0.522c-0.446-0.223-0.503-0.334-0.372-0.819
				c0.093-0.354,0.186-0.708,0.298-1.061c0.13-0.41,0.241-0.466,0.615-0.261c0.633,0.336,1.322,0.522,2.029,0.615
				c0.466,0.056,0.913,0.018,1.341-0.167c0.801-0.354,0.912-1.267,0.242-1.825c-0.224-0.188-0.483-0.336-0.764-0.447
				c-0.688-0.298-1.435-0.541-2.085-0.932c-1.062-0.633-1.751-1.527-1.677-2.812c0.093-1.471,0.913-2.384,2.272-2.887
				c0.559-0.205,0.559-0.186,0.559-0.782v-0.596c0.019-0.447,0.093-0.521,0.521-0.521h0.409c0.932,0,0.932,0,0.932,0.931
				c0,0.652,0,0.652,0.651,0.764c0.503,0.075,0.987,0.224,1.453,0.428c0.261,0.112,0.354,0.299,0.279,0.559
				c-0.111,0.41-0.224,0.801-0.354,1.211c-0.131,0.373-0.243,0.429-0.597,0.26c-0.726-0.354-1.489-0.503-2.291-0.446
				c-0.204,0.018-0.408,0.037-0.614,0.13c-0.688,0.298-0.801,1.061-0.223,1.546c0.297,0.242,0.633,0.41,0.986,0.559
				c0.615,0.261,1.229,0.503,1.807,0.819c1.863,1.025,2.365,3.354,1.043,4.955c-0.466,0.577-1.08,0.968-1.807,1.154
				c-0.316,0.093-0.446,0.242-0.446,0.578c0.019,0.316,0,0.633,0,0.95c0,0.279-0.149,0.447-0.43,0.447
				C105.349,75.92,104.994,75.92,104.66,75.902L104.66,75.902z"/>
			<path fill="#6DCFF6" d="M92.517,69.047c0,1.656-1.344,2.999-2.999,2.999c-1.656,0-2.998-1.342-2.998-2.999
				c0-1.656,1.342-2.998,2.998-2.998C91.173,66.049,92.517,67.392,92.517,69.047L92.517,69.047z"/>
			<path fill="#6DCFF6" d="M124.01,69.047c0,1.656-1.342,2.999-2.998,2.999c-1.656,0-2.998-1.342-2.998-2.999
				c0-1.656,1.342-2.998,2.998-2.998C122.668,66.049,124.01,67.392,124.01,69.047L124.01,69.047z"/>
			<g>
				<path fill="#6DCFF6" d="M129.169,50.851H82.03c-2.719,0-4.936,2.216-4.936,4.936v16.465c0.727-0.038,1.453-0.056,2.198-0.056
					c0.689,0,1.359,0.019,2.029,0.056v-11.12c0.391,0.094,0.802,0.149,1.229,0.149c2.757,0,5.01-2.235,5.01-5.01
					c0-0.428-0.056-0.838-0.148-1.229h36.709c-0.056,0.298-0.093,0.615-0.093,0.913c0,2.757,2.234,5.01,5.01,5.01
					c0.299,0,0.596-0.038,0.875-0.075v15.179c-0.279-0.056-0.576-0.075-0.875-0.075c-2.757,0-5.01,2.235-5.01,5.01
					c0,0.316,0.037,0.615,0.093,0.913H97.806v4.228h31.345c2.72,0,4.936-2.216,4.936-4.935V55.787
					C134.104,53.067,131.888,50.851,129.169,50.851L129.169,50.851z"/>
				<path fill="#6DCFF6" d="M48.246,74.971c2.719,1.024,6.313,1.583,10.112,1.583c2.012,0,3.967-0.168,5.756-0.466
					c0.986-0.746,2.253-1.454,3.873-2.049c1.62-0.597,3.502-1.062,5.513-1.36V56.83c0-1.472-0.875-3.557-5.028-5.122
					c-2.719-1.043-6.313-1.602-10.113-1.602c-3.799,0-7.394,0.559-10.112,1.583c-4.153,1.546-5.029,3.631-5.029,5.122v32.593
					c0,1.471,0.876,3.557,5.029,5.122c2.719,1.024,6.313,1.583,10.112,1.583c0.819,0,1.621-0.019,2.422-0.074v-3.334
					c-0.783,0.056-1.603,0.093-2.422,0.093c-3.408,0-6.593-0.484-8.939-1.36c-2.328-0.875-2.868-1.75-2.868-1.974v-2.104
					c0.483,0.261,1.061,0.503,1.695,0.745c2.719,1.025,6.313,1.583,10.112,1.583c0.819,0,1.621-0.018,2.422-0.074v-3.427
					c-0.783,0.055-1.603,0.093-2.422,0.093c-3.408,0-6.593-0.484-8.939-1.359c-2.328-0.875-2.868-1.751-2.868-1.975v-2.086
					c0.483,0.261,1.061,0.503,1.695,0.746c2.719,1.024,6.313,1.582,10.112,1.582c0.819,0,1.621-0.018,2.422-0.073V82.31
					c0-0.745,0.111-1.713,0.559-2.756c-0.969,0.093-1.956,0.13-2.98,0.13c-3.408,0-6.593-0.483-8.939-1.359
					c-2.328-0.875-2.868-1.751-2.868-1.975v-2.085C47.053,74.468,47.611,74.729,48.246,74.971L48.246,74.971z M49.419,54.818
					c2.365-0.875,5.55-1.359,8.939-1.359c3.408,0,6.593,0.485,8.94,1.359c2.254,0.839,2.812,1.677,2.85,1.957v0.056
					c-0.037,0.279-0.596,1.118-2.85,1.956c-2.365,0.875-5.55,1.36-8.94,1.36c-3.408,0-6.593-0.485-8.939-1.36
					c-2.328-0.875-2.868-1.75-2.868-1.974S47.091,55.676,49.419,54.818L49.419,54.818z M46.551,61.151
					c0.483,0.261,1.061,0.503,1.695,0.745c2.719,1.024,6.313,1.583,10.112,1.583c3.8,0,7.395-0.56,10.113-1.583
					c0.634-0.242,1.192-0.484,1.695-0.745v2.104c-0.037,0.279-0.597,1.118-2.85,1.955c-2.366,0.876-5.551,1.36-8.94,1.36
					c-3.408,0-6.593-0.483-8.94-1.36c-2.327-0.875-2.868-1.75-2.868-1.974V61.15L46.551,61.151L46.551,61.151z M46.551,67.688
					c0.483,0.261,1.061,0.503,1.695,0.745c2.719,1.025,6.313,1.583,10.112,1.583c3.8,0,7.395-0.558,10.113-1.583
					c0.634-0.242,1.192-0.484,1.695-0.745v2.104c-0.037,0.28-0.597,1.117-2.85,1.956c-2.366,0.875-5.551,1.359-8.94,1.359
					c-3.408,0-6.593-0.484-8.94-1.359c-2.327-0.876-2.868-1.751-2.868-1.975v-2.086L46.551,67.688L46.551,67.688z"/>
			</g>
			<path fill="#6DCFF6" d="M89.387,77.149c-2.719-1.024-6.313-1.583-10.112-1.583c-3.8,0-7.395,0.56-10.113,1.583
				c-4.153,1.546-5.029,3.632-5.029,5.122v19.556c0,1.471,0.876,3.557,5.029,5.122c2.719,1.024,6.313,1.583,10.113,1.583
				c3.799,0,7.394-0.56,10.112-1.583c4.154-1.546,5.029-3.632,5.029-5.122V82.271C94.435,80.8,93.559,78.714,89.387,77.149
				L89.387,77.149z M70.334,80.297c2.366-0.875,5.551-1.359,8.94-1.359c3.408,0,6.593,0.485,8.939,1.359
				c2.254,0.839,2.831,1.676,2.85,1.956v0.056c-0.037,0.279-0.596,1.118-2.85,1.955c-2.365,0.875-5.55,1.36-8.939,1.36
				c-3.409,0-6.594-0.484-8.94-1.36c-2.328-0.875-2.868-1.75-2.868-1.974C67.466,82.067,67.987,81.153,70.334,80.297L70.334,80.297z
				 M88.232,103.764c-2.365,0.875-5.55,1.36-8.939,1.36c-3.408,0-6.593-0.485-8.94-1.36c-2.327-0.875-2.869-1.75-2.869-1.974v-2.086
				c0.485,0.261,1.063,0.503,1.696,0.745c2.719,1.025,6.314,1.583,10.113,1.583s7.394-0.558,10.112-1.583
				c0.634-0.242,1.192-0.484,1.695-0.745v2.086C91.083,102.014,90.561,102.888,88.232,103.764L88.232,103.764z M91.083,95.253v0.018
				c-0.038,0.279-0.598,1.118-2.851,1.955c-2.365,0.876-5.55,1.36-8.939,1.36c-3.408,0-6.593-0.484-8.94-1.36
				c-2.327-0.875-2.869-1.75-2.869-1.973v-2.086c0.485,0.26,1.063,0.503,1.696,0.745c2.719,1.024,6.314,1.583,10.113,1.583
				s7.394-0.56,10.112-1.583c0.634-0.242,1.192-0.484,1.695-0.745L91.083,95.253z M91.083,88.715v0.019
				c-0.038,0.279-0.598,1.117-2.851,1.956c-2.365,0.875-5.55,1.359-8.939,1.359c-3.408,0-6.593-0.485-8.94-1.359
				c-2.327-0.876-2.869-1.751-2.869-1.975v-2.086c0.485,0.261,1.063,0.503,1.696,0.745c2.719,1.025,6.314,1.583,10.113,1.583
				s7.394-0.558,10.112-1.583c0.634-0.242,1.192-0.484,1.695-0.745L91.083,88.715z"/>
		</g>
		<g>
			<path fill="#FFFFFF" d="M324.635,186.476c-1.643-1.109-3.407-1.973-5.094-2.424v6.242c6.244,1.684,8.914,4.189,8.914,8.789v0.083
				c0,4.601-3.531,7.556-8.707,8.09v4.065h-4.271v-4.148c-3.53-0.451-6.979-1.848-9.69-3.9l3.203-4.683
				c2.217,1.685,4.27,2.833,6.694,3.326v-6.53c-5.914-1.601-8.83-3.818-8.83-8.705v-0.082c0-4.519,3.448-7.517,8.623-8.05v-2.382
				h4.271v2.505c2.914,0.37,5.379,1.437,7.639,2.998L324.635,186.476z M315.685,189.269v-5.586
				c-2.015,0.246-2.836,1.232-2.836,2.547v0.082C312.849,187.625,313.424,188.447,315.685,189.269z M319.542,196.373v5.75
				c1.933-0.287,2.918-1.149,2.918-2.628v-0.082C322.459,198.056,321.763,197.194,319.542,196.373z"/>
		</g>
	</g>
</g>
<g id="Layer_2">
</g>
</svg>
